<?xml version="1.0" encoding="utf-8"?>
<!-- Generator: Adobe Illustrator 16.0.0, SVG Export Plug-In . SVG Version: 6.00 Build 0)  -->
<!DOCTYPE svg PUBLIC "-//W3C//DTD SVG 1.1//EN" "http://www.w3.org/Graphics/SVG/1.1/DTD/svg11.dtd" [
	<!ENTITY ns_extend "http://ns.adobe.com/Extensibility/1.0/">
	<!ENTITY ns_ai "http://ns.adobe.com/AdobeIllustrator/10.0/">
	<!ENTITY ns_graphs "http://ns.adobe.com/Graphs/1.0/">
	<!ENTITY ns_vars "http://ns.adobe.com/Variables/1.0/">
	<!ENTITY ns_imrep "http://ns.adobe.com/ImageReplacement/1.0/">
	<!ENTITY ns_sfw "http://ns.adobe.com/SaveForWeb/1.0/">
	<!ENTITY ns_custom "http://ns.adobe.com/GenericCustomNamespace/1.0/">
	<!ENTITY ns_adobe_xpath "http://ns.adobe.com/XPath/1.0/">
]>
<svg version="1.1" id="Capa_1" xmlns:x="&ns_extend;" xmlns:i="&ns_ai;" xmlns:graph="&ns_graphs;"
	 xmlns="http://www.w3.org/2000/svg" xmlns:xlink="http://www.w3.org/1999/xlink" x="0px" y="0px" width="33px" height="33px"
	 viewBox="0 0 33 33" enable-background="new 0 0 33 33" xml:space="preserve">
<metadata>
	<sfw  xmlns="&ns_sfw;">
		<slices></slices>
		<sliceSourceBounds  width="28.074" height="28.074" x="49.463" y="46.463" bottomLeftOrigin="true"></sliceSourceBounds>
	</sfw>
</metadata>
<g>
	<circle fill="#A6BF54" enable-background="new    " cx="16.209" cy="14.459" r="1.972"/>
	<path fill="#A6BF54" enable-background="new    " d="M16.5,2.463C8.748,2.463,2.463,8.748,2.463,16.5
		c0,7.752,6.285,14.037,14.037,14.037c7.752,0,14.037-6.285,14.037-14.037C30.537,8.748,24.252,2.463,16.5,2.463z M20.723,16.543
		c0,0-3.717,7.611-4.514,7.611c-0.642,0-4.314-7.381-4.514-7.611h0.013c-0.295-0.635-0.472-1.337-0.472-2.084
		c0-2.746,2.227-4.973,4.973-4.973s4.973,2.227,4.973,4.973c0,0.748-0.177,1.449-0.472,2.084H20.723z"/>
</g>
</svg>
