<?xml version="1.0" encoding="utf-8"?>
<!-- Generator: Adobe Illustrator 16.0.0, SVG Export Plug-In . SVG Version: 6.00 Build 0)  -->
<!DOCTYPE svg PUBLIC "-//W3C//DTD SVG 1.1//EN" "http://www.w3.org/Graphics/SVG/1.1/DTD/svg11.dtd" [
	<!ENTITY ns_extend "http://ns.adobe.com/Extensibility/1.0/">
	<!ENTITY ns_ai "http://ns.adobe.com/AdobeIllustrator/10.0/">
	<!ENTITY ns_graphs "http://ns.adobe.com/Graphs/1.0/">
	<!ENTITY ns_vars "http://ns.adobe.com/Variables/1.0/">
	<!ENTITY ns_imrep "http://ns.adobe.com/ImageReplacement/1.0/">
	<!ENTITY ns_sfw "http://ns.adobe.com/SaveForWeb/1.0/">
	<!ENTITY ns_custom "http://ns.adobe.com/GenericCustomNamespace/1.0/">
	<!ENTITY ns_adobe_xpath "http://ns.adobe.com/XPath/1.0/">
]>
<svg version="1.1" id="Capa_1" xmlns:x="&ns_extend;" xmlns:i="&ns_ai;" xmlns:graph="&ns_graphs;"
	 xmlns="http://www.w3.org/2000/svg" xmlns:xlink="http://www.w3.org/1999/xlink" x="0px" y="0px" width="24px" height="16.82px"
	 viewBox="0 0 24 16.82" enable-background="new 0 0 24 16.82" xml:space="preserve">
<metadata>
	<sfw  xmlns="&ns_sfw;">
		<slices></slices>
		<sliceSourceBounds  width="17.529" height="15.775" x="3.103" y="4.621" bottomLeftOrigin="true"></sliceSourceBounds>
	</sfw>
</metadata>
<g id="Page-1">
	<g id="Core" transform="translate(-254.000000, -339.000000)">
		<g id="print" transform="translate(254.000000, 339.000000)">
			<path id="Shape" fill="#FFFFFF" d="M18.504,4.895H6.232c-1.489,0-2.629,1.14-2.629,2.629v5.259h3.506v3.505h10.518v-3.505h3.505
				V7.525C21.132,6.035,19.993,4.895,18.504,4.895L18.504,4.895z M15.873,14.537H8.862v-4.383h7.012L15.873,14.537L15.873,14.537z
				 M18.504,8.401c-0.525,0-0.877-0.35-0.877-0.876c0-0.525,0.351-0.877,0.877-0.877c0.525,0,0.875,0.35,0.875,0.877
				C19.379,8.051,19.028,8.401,18.504,8.401L18.504,8.401z M17.627,0.513H7.109v3.505h10.518V0.513L17.627,0.513z"/>
		</g>
	</g>
</g>
</svg>
