<?xml version="1.0" encoding="utf-8"?>
<!-- Generator: Adobe Illustrator 16.0.0, SVG Export Plug-In . SVG Version: 6.00 Build 0)  -->
<!DOCTYPE svg PUBLIC "-//W3C//DTD SVG 1.1//EN" "http://www.w3.org/Graphics/SVG/1.1/DTD/svg11.dtd" [
	<!ENTITY ns_extend "http://ns.adobe.com/Extensibility/1.0/">
	<!ENTITY ns_ai "http://ns.adobe.com/AdobeIllustrator/10.0/">
	<!ENTITY ns_graphs "http://ns.adobe.com/Graphs/1.0/">
	<!ENTITY ns_vars "http://ns.adobe.com/Variables/1.0/">
	<!ENTITY ns_imrep "http://ns.adobe.com/ImageReplacement/1.0/">
	<!ENTITY ns_sfw "http://ns.adobe.com/SaveForWeb/1.0/">
	<!ENTITY ns_custom "http://ns.adobe.com/GenericCustomNamespace/1.0/">
	<!ENTITY ns_adobe_xpath "http://ns.adobe.com/XPath/1.0/">
]>
<svg version="1.1" id="Capa_1" xmlns:x="&ns_extend;" xmlns:i="&ns_ai;" xmlns:graph="&ns_graphs;"
	 xmlns="http://www.w3.org/2000/svg" xmlns:xlink="http://www.w3.org/1999/xlink" x="0px" y="0px" width="33px" height="33px"
	 viewBox="0 0 33 33" enable-background="new 0 0 33 33" xml:space="preserve">
<metadata>
	<sfw  xmlns="&ns_sfw;">
		<slices></slices>
		<sliceSourceBounds  width="28" height="27.999" x="49.337" y="46.874" bottomLeftOrigin="true"></sliceSourceBounds>
	</sfw>
</metadata>
<g>
	<rect x="12.491" y="10.779" fill="#A6BF54" enable-background="new    " width="2.509" height="2.4"/>
	<rect x="17.674" y="14.598" fill="#A6BF54" enable-background="new    " width="2.51" height="2.402"/>
	<rect x="17.674" y="10.779" fill="#A6BF54" enable-background="new    " width="2.51" height="2.4"/>
	<rect x="12.491" y="14.598" fill="#A6BF54" enable-background="new    " width="2.509" height="2.402"/>
	<path fill="#A6BF54" enable-background="new    " d="M16.337,2.127c-7.732,0-14,6.268-14,14c0,7.732,6.268,14,14,14
		c7.731,0,14-6.268,14-14C30.338,8.395,24.068,2.127,16.337,2.127z M22.559,23.548h-4.447v-3.93h-3.547v3.93h-4.448V8.706h12.442
		V23.548z"/>
</g>
</svg>
